<!-- <svg viewBox="0 0 24 24" xmlns="http://www.w3.org/2000/svg" width="20px" height="34px"><path fill="#86DC3D" d="M20 3H4c-1.103 0-2 .897-2 2v14c0 1.103.897 2 2 2h16c1.103 0 2-.897 2-2V5c0-1.103-.897-2-2-2zm.001 6c-.001 0-.001 0 0 0h-.465l-2.667-4H20l.001 4zM15.5 15 10 18v-6l5.5 3zm-.964-6-2.667-4h2.596l2.667 4h-2.596zm-2.404 0H9.536L6.869 5h2.596l2.667 4zM4 5h.465l2.667 4H4V5z"></path></svg> -->
<svg xmlns="http://www.w3.org/2000/svg" width="34" height="34" viewBox="0 0 34 34">
  <!-- Background Circle -->
  <circle cx="17" cy="17" r="15" fill="#86DC3D" />
  <!-- Letter "E" -->
  <text x="4" y="24" font-family="Arial" font-size="20" font-weight="bold" fill="#FFFFFF">E</text>
  <!-- Letter "G" -->
  <text x="15" y="24" font-family="Arial" font-size="20" font-weight="bold" fill="#FFFFFF">G</text>
  <circle cx="12" cy="27" r="1" fill="#FFFFFF" />
  <circle cx="17" cy="27" r="1" fill="#FFFFFF" />
  <circle cx="22" cy="27" r="1" fill="#FFFFFF" />
</svg>
